<svg xmlns="http://www.w3.org/2000/svg" width="1005" height="600"><rect width="1005" height="600" x="0" y="0" fill="#FFFFFF" id="background"/><g transform="translate(50,50)" id="visualization"><g id="viz"><g class="hulls"><path d="M353,108L7,428L19,456L97,379Z" fill="#8c564b" stroke="#8c564b" stroke-width="10" stroke-linejoin="round" opacity="0.5"/><g><circle cx="7" cy="428" fill="#8c564b" r="2.5"/><circle cx="353" cy="108" fill="#8c564b" r="2.5"/><circle cx="19" cy="456" fill="#8c564b" r="2.5"/><circle cx="97" cy="379" fill="#8c564b" r="2.5"/></g></g><g class="hulls"><path d="M643,249L627,0L418,2L19,361L6,478L18,475Z" fill="#1f77b4" stroke="#1f77b4" stroke-width="10" stroke-linejoin="round" opacity="0.5"/><g><circle cx="418" cy="2" fill="#1f77b4" r="2.5"/><circle cx="19" cy="361" fill="#1f77b4" r="2.5"/><circle cx="627" cy="0" fill="#1f77b4" r="2.5"/><circle cx="455" cy="131" fill="#1f77b4" r="2.5"/><circle cx="111" cy="316" fill="#1f77b4" r="2.5"/><circle cx="631" cy="134" fill="#1f77b4" r="2.5"/><circle cx="264" cy="202" fill="#1f77b4" r="2.5"/><circle cx="203" cy="317" fill="#1f77b4" r="2.5"/><circle cx="388" cy="229" fill="#1f77b4" r="2.5"/><circle cx="41" cy="402" fill="#1f77b4" r="2.5"/><circle cx="132" cy="354" fill="#1f77b4" r="2.5"/><circle cx="335" cy="229" fill="#1f77b4" r="2.5"/><circle cx="18" cy="475" fill="#1f77b4" r="2.5"/><circle cx="397" cy="310" fill="#1f77b4" r="2.5"/><circle cx="643" cy="249" fill="#1f77b4" r="2.5"/><circle cx="6" cy="478" fill="#1f77b4" r="2.5"/><circle cx="164" cy="341" fill="#1f77b4" r="2.5"/><circle cx="353" cy="259" fill="#1f77b4" r="2.5"/><circle cx="456" cy="262" fill="#1f77b4" r="2.5"/><circle cx="57" cy="415" fill="#1f77b4" r="2.5"/><circle cx="353" cy="283" fill="#1f77b4" r="2.5"/><circle cx="315" cy="266" fill="#1f77b4" r="2.5"/></g></g><g class="hulls"><path d="M3.061616997868383e-16,-5A5,5,0,1,1,-3.061616997868383e-16,5A5,5,0,1,1,3.061616997868383e-16,-5Z" fill="#d62728" stroke="#d62728" stroke-width="0" stroke-linejoin="round" opacity="0.5" transform="translate(14, 449)"/><g><circle cx="14" cy="449" fill="#d62728" r="2.5"/></g></g><g class="hulls"><path d="M3.061616997868383e-16,-5A5,5,0,1,1,-3.061616997868383e-16,5A5,5,0,1,1,3.061616997868383e-16,-5Z" fill="#e377c2" stroke="#e377c2" stroke-width="0" stroke-linejoin="round" opacity="0.5" transform="translate(19, 358)"/><g><circle cx="19" cy="358" fill="#e377c2" r="2.5"/></g></g><g class="hulls"><path d="M308,260L166,296L16,416L23,478Z" fill="#ff7f0e" stroke="#ff7f0e" stroke-width="10" stroke-linejoin="round" opacity="0.5"/><g><circle cx="23" cy="478" fill="#ff7f0e" r="2.5"/><circle cx="16" cy="416" fill="#ff7f0e" r="2.5"/><circle cx="27" cy="474" fill="#ff7f0e" r="2.5"/><circle cx="166" cy="296" fill="#ff7f0e" r="2.5"/><circle cx="220" cy="325" fill="#ff7f0e" r="2.5"/><circle cx="308" cy="260" fill="#ff7f0e" r="2.5"/><circle cx="166" cy="330" fill="#ff7f0e" r="2.5"/><circle cx="176" cy="343" fill="#ff7f0e" r="2.5"/></g></g><g class="hulls"><path d="M449,204L264,241L79,327L3,425L2,452L5,453L264,334Z" fill="#2ca02c" stroke="#2ca02c" stroke-width="10" stroke-linejoin="round" opacity="0.5"/><g><circle cx="3" cy="425" fill="#2ca02c" r="2.5"/><circle cx="7" cy="446" fill="#2ca02c" r="2.5"/><circle cx="79" cy="327" fill="#2ca02c" r="2.5"/><circle cx="7" cy="433" fill="#2ca02c" r="2.5"/><circle cx="449" cy="204" fill="#2ca02c" r="2.5"/><circle cx="5" cy="453" fill="#2ca02c" r="2.5"/><circle cx="2" cy="452" fill="#2ca02c" r="2.5"/><circle cx="264" cy="271" fill="#2ca02c" r="2.5"/><circle cx="264" cy="241" fill="#2ca02c" r="2.5"/><circle cx="166" cy="332" fill="#2ca02c" r="2.5"/><circle cx="264" cy="334" fill="#2ca02c" r="2.5"/></g></g><g class="hulls"><path d="M3.061616997868383e-16,-5A5,5,0,1,1,-3.061616997868383e-16,5A5,5,0,1,1,3.061616997868383e-16,-5Z" fill="#7f7f7f" stroke="#7f7f7f" stroke-width="0" stroke-linejoin="round" opacity="0.5" transform="translate(21, 421)"/><g><circle cx="21" cy="421" fill="#7f7f7f" r="2.5"/></g></g><g class="hulls"><path d="M3.061616997868383e-16,-5A5,5,0,1,1,-3.061616997868383e-16,5A5,5,0,1,1,3.061616997868383e-16,-5Z" fill="#bcbd22" stroke="#bcbd22" stroke-width="0" stroke-linejoin="round" opacity="0.5" transform="translate(11, 429)"/><g><circle cx="11" cy="429" fill="#bcbd22" r="2.5"/></g></g><g class="hulls"><path d="M3.061616997868383e-16,-5A5,5,0,1,1,-3.061616997868383e-16,5A5,5,0,1,1,3.061616997868383e-16,-5Z" fill="#9467bd" stroke="#9467bd" stroke-width="0" stroke-linejoin="round" opacity="0.5" transform="translate(10, 456)"/><g><circle cx="10" cy="456" fill="#9467bd" r="2.5"/></g></g></g><g id="labels"><g transform="translate(7,428)"><text x="0" y="0" text-anchor="middle" dominant-baseline="text-before-edge" transform="translate(0,0)"/></g><g transform="translate(418,2)"><text x="0" y="0" text-anchor="middle" dominant-baseline="text-before-edge" transform="translate(0,0)"/></g><g transform="translate(353,108)"><text x="0" y="0" text-anchor="middle" dominant-baseline="text-before-edge" transform="translate(0,0)"/></g><g transform="translate(19,361)"><text x="0" y="0" text-anchor="middle" dominant-baseline="text-before-edge" transform="translate(0,0)"/></g><g transform="translate(627,0)"><text x="0" y="0" text-anchor="middle" dominant-baseline="text-before-edge" transform="translate(0,0)"/></g><g transform="translate(14,449)"><text x="0" y="0" text-anchor="middle" dominant-baseline="text-before-edge" transform="translate(0,0)"/></g><g transform="translate(19,358)"><text x="0" y="0" text-anchor="middle" dominant-baseline="text-before-edge" transform="translate(0,0)"/></g><g transform="translate(23,478)"><text x="0" y="0" text-anchor="middle" dominant-baseline="text-before-edge" transform="translate(0,0)"/></g><g transform="translate(19,456)"><text x="0" y="0" text-anchor="middle" dominant-baseline="text-before-edge" transform="translate(0,0)"/></g><g transform="translate(455,131)"><text x="0" y="0" text-anchor="middle" dominant-baseline="text-before-edge" transform="translate(0,0)"/></g><g transform="translate(3,425)"><text x="0" y="0" text-anchor="middle" dominant-baseline="text-before-edge" transform="translate(0,0)"/></g><g transform="translate(111,316)"><text x="0" y="0" text-anchor="middle" dominant-baseline="text-before-edge" transform="translate(0,0)"/></g><g transform="translate(16,416)"><text x="0" y="0" text-anchor="middle" dominant-baseline="text-before-edge" transform="translate(0,0)"/></g><g transform="translate(631,134)"><text x="0" y="0" text-anchor="middle" dominant-baseline="text-before-edge" transform="translate(0,0)"/></g><g transform="translate(21,421)"><text x="0" y="0" text-anchor="middle" dominant-baseline="text-before-edge" transform="translate(0,0)"/></g><g transform="translate(7,446)"><text x="0" y="0" text-anchor="middle" dominant-baseline="text-before-edge" transform="translate(0,0)"/></g><g transform="translate(79,327)"><text x="0" y="0" text-anchor="middle" dominant-baseline="text-before-edge" transform="translate(0,0)"/></g><g transform="translate(264,202)"><text x="0" y="0" text-anchor="middle" dominant-baseline="text-before-edge" transform="translate(0,0)"/></g><g transform="translate(7,433)"><text x="0" y="0" text-anchor="middle" dominant-baseline="text-before-edge" transform="translate(0,0)"/></g><g transform="translate(203,317)"><text x="0" y="0" text-anchor="middle" dominant-baseline="text-before-edge" transform="translate(0,0)"/></g><g transform="translate(27,474)"><text x="0" y="0" text-anchor="middle" dominant-baseline="text-before-edge" transform="translate(0,0)"/></g><g transform="translate(388,229)"><text x="0" y="0" text-anchor="middle" dominant-baseline="text-before-edge" transform="translate(0,0)"/></g><g transform="translate(166,296)"><text x="0" y="0" text-anchor="middle" dominant-baseline="text-before-edge" transform="translate(0,0)"/></g><g transform="translate(41,402)"><text x="0" y="0" text-anchor="middle" dominant-baseline="text-before-edge" transform="translate(0,0)"/></g><g transform="translate(132,354)"><text x="0" y="0" text-anchor="middle" dominant-baseline="text-before-edge" transform="translate(0,0)"/></g><g transform="translate(449,204)"><text x="0" y="0" text-anchor="middle" dominant-baseline="text-before-edge" transform="translate(0,0)"/></g><g transform="translate(335,229)"><text x="0" y="0" text-anchor="middle" dominant-baseline="text-before-edge" transform="translate(0,0)"/></g><g transform="translate(220,325)"><text x="0" y="0" text-anchor="middle" dominant-baseline="text-before-edge" transform="translate(0,0)"/></g><g transform="translate(5,453)"><text x="0" y="0" text-anchor="middle" dominant-baseline="text-before-edge" transform="translate(0,0)"/></g><g transform="translate(308,260)"><text x="0" y="0" text-anchor="middle" dominant-baseline="text-before-edge" transform="translate(0,0)"/></g><g transform="translate(18,475)"><text x="0" y="0" text-anchor="middle" dominant-baseline="text-before-edge" transform="translate(0,0)"/></g><g transform="translate(2,452)"><text x="0" y="0" text-anchor="middle" dominant-baseline="text-before-edge" transform="translate(0,0)"/></g><g transform="translate(397,310)"><text x="0" y="0" text-anchor="middle" dominant-baseline="text-before-edge" transform="translate(0,0)"/></g><g transform="translate(643,249)"><text x="0" y="0" text-anchor="middle" dominant-baseline="text-before-edge" transform="translate(0,0)"/></g><g transform="translate(6,478)"><text x="0" y="0" text-anchor="middle" dominant-baseline="text-before-edge" transform="translate(0,0)"/></g><g transform="translate(11,429)"><text x="0" y="0" text-anchor="middle" dominant-baseline="text-before-edge" transform="translate(0,0)"/></g><g transform="translate(97,379)"><text x="0" y="0" text-anchor="middle" dominant-baseline="text-before-edge" transform="translate(0,0)"/></g><g transform="translate(166,330)"><text x="0" y="0" text-anchor="middle" dominant-baseline="text-before-edge" transform="translate(0,0)"/></g><g transform="translate(164,341)"><text x="0" y="0" text-anchor="middle" dominant-baseline="text-before-edge" transform="translate(0,0)"/></g><g transform="translate(264,271)"><text x="0" y="0" text-anchor="middle" dominant-baseline="text-before-edge" transform="translate(0,0)"/></g><g transform="translate(264,241)"><text x="0" y="0" text-anchor="middle" dominant-baseline="text-before-edge" transform="translate(0,0)"/></g><g transform="translate(166,332)"><text x="0" y="0" text-anchor="middle" dominant-baseline="text-before-edge" transform="translate(0,0)"/></g><g transform="translate(176,343)"><text x="0" y="0" text-anchor="middle" dominant-baseline="text-before-edge" transform="translate(0,0)"/></g><g transform="translate(264,334)"><text x="0" y="0" text-anchor="middle" dominant-baseline="text-before-edge" transform="translate(0,0)"/></g><g transform="translate(353,259)"><text x="0" y="0" text-anchor="middle" dominant-baseline="text-before-edge" transform="translate(0,0)"/></g><g transform="translate(456,262)"><text x="0" y="0" text-anchor="middle" dominant-baseline="text-before-edge" transform="translate(0,0)"/></g><g transform="translate(57,415)"><text x="0" y="0" text-anchor="middle" dominant-baseline="text-before-edge" transform="translate(0,0)"/></g><g transform="translate(353,283)"><text x="0" y="0" text-anchor="middle" dominant-baseline="text-before-edge" transform="translate(0,0)"/></g><g transform="translate(315,266)"><text x="0" y="0" text-anchor="middle" dominant-baseline="text-before-edge" transform="translate(0,0)"/></g><g transform="translate(10,456)"><text x="0" y="0" text-anchor="middle" dominant-baseline="text-before-edge" transform="translate(0,0)"/></g></g><g id="axis"><g transform="translate(0,500)" fill="none" font-size="10" font-family="sans-serif" text-anchor="middle"><path class="domain" stroke="currentColor" d="M0.5,6V0.5H705.5V6"/><g class="tick" opacity="1" transform="translate(0.5,0)"><line stroke="currentColor" y2="6"/><text fill="currentColor" y="9" dy="0.71em">0</text></g><g class="tick" opacity="1" transform="translate(88.5,0)"><line stroke="currentColor" y2="6"/><text fill="currentColor" y="9" dy="0.71em">50</text></g><g class="tick" opacity="1" transform="translate(176.5,0)"><line stroke="currentColor" y2="6"/><text fill="currentColor" y="9" dy="0.71em">100</text></g><g class="tick" opacity="1" transform="translate(264.5,0)"><line stroke="currentColor" y2="6"/><text fill="currentColor" y="9" dy="0.71em">150</text></g><g class="tick" opacity="1" transform="translate(353.5,0)"><line stroke="currentColor" y2="6"/><text fill="currentColor" y="9" dy="0.71em">200</text></g><g class="tick" opacity="1" transform="translate(441.5,0)"><line stroke="currentColor" y2="6"/><text fill="currentColor" y="9" dy="0.71em">250</text></g><g class="tick" opacity="1" transform="translate(529.5,0)"><line stroke="currentColor" y2="6"/><text fill="currentColor" y="9" dy="0.71em">300</text></g><g class="tick" opacity="1" transform="translate(617.5,0)"><line stroke="currentColor" y2="6"/><text fill="currentColor" y="9" dy="0.71em">350</text></g><g class="tick" opacity="1" transform="translate(705.5,0)"><line stroke="currentColor" y2="6"/><text fill="currentColor" y="9" dy="0.71em">400</text></g><text x="705" dy="-5" text-anchor="end" style="font-family: Arial, sans-serif; font-size: 12px; fill: rgb(123, 123, 123); font-weight: bold;">Budget (mln)</text></g><g fill="none" font-size="10" font-family="sans-serif" text-anchor="end"><path class="domain" stroke="currentColor" d="M-6,500.5H0.5V0.5H-6"/><g class="tick" opacity="1" transform="translate(0,500.5)"><line stroke="currentColor" x2="-6"/><text fill="currentColor" x="-9" dy="0.32em">0</text></g><g class="tick" opacity="1" transform="translate(0,464.5)"><line stroke="currentColor" x2="-6"/><text fill="currentColor" x="-9" dy="0.32em">200</text></g><g class="tick" opacity="1" transform="translate(0,429.5)"><line stroke="currentColor" x2="-6"/><text fill="currentColor" x="-9" dy="0.32em">400</text></g><g class="tick" opacity="1" transform="translate(0,393.5)"><line stroke="currentColor" x2="-6"/><text fill="currentColor" x="-9" dy="0.32em">600</text></g><g class="tick" opacity="1" transform="translate(0,357.5)"><line stroke="currentColor" x2="-6"/><text fill="currentColor" x="-9" dy="0.32em">800</text></g><g class="tick" opacity="1" transform="translate(0,321.5)"><line stroke="currentColor" x2="-6"/><text fill="currentColor" x="-9" dy="0.32em">1,000</text></g><g class="tick" opacity="1" transform="translate(0,286.5)"><line stroke="currentColor" x2="-6"/><text fill="currentColor" x="-9" dy="0.32em">1,200</text></g><g class="tick" opacity="1" transform="translate(0,250.5)"><line stroke="currentColor" x2="-6"/><text fill="currentColor" x="-9" dy="0.32em">1,400</text></g><g class="tick" opacity="1" transform="translate(0,214.5)"><line stroke="currentColor" x2="-6"/><text fill="currentColor" x="-9" dy="0.32em">1,600</text></g><g class="tick" opacity="1" transform="translate(0,179.5)"><line stroke="currentColor" x2="-6"/><text fill="currentColor" x="-9" dy="0.32em">1,800</text></g><g class="tick" opacity="1" transform="translate(0,143.5)"><line stroke="currentColor" x2="-6"/><text fill="currentColor" x="-9" dy="0.32em">2,000</text></g><g class="tick" opacity="1" transform="translate(0,107.5)"><line stroke="currentColor" x2="-6"/><text fill="currentColor" x="-9" dy="0.32em">2,200</text></g><g class="tick" opacity="1" transform="translate(0,71.5)"><line stroke="currentColor" x2="-6"/><text fill="currentColor" x="-9" dy="0.32em">2,400</text></g><g class="tick" opacity="1" transform="translate(0,36.5)"><line stroke="currentColor" x2="-6"/><text fill="currentColor" x="-9" dy="0.32em">2,600</text></g><g class="tick" opacity="1" transform="translate(0,0.5)"><line stroke="currentColor" x2="-6"/><text fill="currentColor" x="-9" dy="0.32em">2,800</text></g><text x="4" text-anchor="start" dominant-baseline="hanging" style="font-family: Arial, sans-serif; font-size: 12px; fill: rgb(123, 123, 123); font-weight: bold;">Real Worldwide Box Office (mln)</text></g></g></g><g id="legend" transform="translate(805,50)"><g transform="translate(5,0)"><g class="legendColor" transform="translate(0,0)"><g class="legendCells" transform="translate(0,16)"><g class="cell" transform="translate(0, 0)"><rect class="swatch" height="15" width="15" style="fill: rgb(31, 119, 180);"/><text class="label" transform="translate( 20, 12.5)" font-family="&quot;Arial&quot;, sans-serif" font-size="10px"><tspan x="0" dy="0em">Action</tspan></text></g><g class="cell" transform="translate(0, 21)"><rect class="swatch" height="15" width="15" style="fill: rgb(255, 127, 14);"/><text class="label" transform="translate( 20, 12.5)" font-family="&quot;Arial&quot;, sans-serif" font-size="10px"><tspan x="0" dy="0em">Adventure</tspan></text></g><g class="cell" transform="translate(0, 42)"><rect class="swatch" height="15" width="15" style="fill: rgb(44, 160, 44);"/><text class="label" transform="translate( 20, 12.5)" font-family="&quot;Arial&quot;, sans-serif" font-size="10px"><tspan x="0" dy="0em">Animation</tspan></text></g><g class="cell" transform="translate(0, 63)"><rect class="swatch" height="15" width="15" style="fill: rgb(214, 39, 40);"/><text class="label" transform="translate( 20, 12.5)" font-family="&quot;Arial&quot;, sans-serif" font-size="10px"><tspan x="0" dy="0em">Biography</tspan></text></g><g class="cell" transform="translate(0, 84)"><rect class="swatch" height="15" width="15" style="fill: rgb(148, 103, 189);"/><text class="label" transform="translate( 20, 12.5)" font-family="&quot;Arial&quot;, sans-serif" font-size="10px"><tspan x="0" dy="0em">Crime</tspan></text></g><g class="cell" transform="translate(0, 105)"><rect class="swatch" height="15" width="15" style="fill: rgb(140, 86, 75);"/><text class="label" transform="translate( 20, 12.5)" font-family="&quot;Arial&quot;, sans-serif" font-size="10px"><tspan x="0" dy="0em">Drama</tspan></text></g><g class="cell" transform="translate(0, 126)"><rect class="swatch" height="15" width="15" style="fill: rgb(227, 119, 194);"/><text class="label" transform="translate( 20, 12.5)" font-family="&quot;Arial&quot;, sans-serif" font-size="10px"><tspan x="0" dy="0em">Family</tspan></text></g><g class="cell" transform="translate(0, 147)"><rect class="swatch" height="15" width="15" style="fill: rgb(127, 127, 127);"/><text class="label" transform="translate( 20, 12.5)" font-family="&quot;Arial&quot;, sans-serif" font-size="10px"><tspan x="0" dy="0em">Horror</tspan></text></g><g class="cell" transform="translate(0, 168)"><rect class="swatch" height="15" width="15" style="fill: rgb(188, 189, 34);"/><text class="label" transform="translate( 20, 12.5)" font-family="&quot;Arial&quot;, sans-serif" font-size="10px"><tspan x="0" dy="0em">Musical</tspan></text></g></g><text class="legendTitle" font-family="&quot;Arial&quot;, sans-serif" font-size="12px" font-weight="bold"><tspan x="0" dy="0em">Genre</tspan></text></g></g></g></svg>